<?xml version="1.0" encoding="iso-8859-1"?>
<!-- Uploaded to: SVG Repo, www.svgrepo.com, Generator: SVG Repo Mixer Tools -->
<svg version="1.1" id="Layer_1" xmlns="http://www.w3.org/2000/svg" xmlns:xlink="http://www.w3.org/1999/xlink" 
	 viewBox="0 0 512.054 512.054" xml:space="preserve">
<path style="fill:#A0D468;" d="M256.047,256.026v21.344c23.523,0,42.664,19.125,42.664,42.656s-19.141,42.656-42.664,42.656v21.344
	c35.352,0,64.008-28.656,64.008-64S291.398,256.026,256.047,256.026z"/>
<g>
	<path style="fill:#8CC153;" d="M293.242,157.41c-0.109-0.055-0.219-0.109-0.312-0.164c-0.031-0.016-0.062-0.023-0.094-0.039l0,0
		c-1.438-0.727-3.062-1.148-4.781-1.148c-5.906,0-10.672,4.781-10.672,10.672c0,4.164,2.391,7.758,5.859,9.516v0.023
		c1.891,0.953,3.641,2.016,5.203,3.195c6.906,5.219,10.266,12.602,10.266,22.562c0,12.578-5.25,26.617-14.031,37.562
		c-8.407,10.446-18.837,16.438-28.633,16.438c-0.008,0-0.016,0-0.023,0v21.344c0.008,0,0.016,0,0.023,0
		c35.352,0,64.008-40,64.008-75.344C320.054,180.549,309.461,165.73,293.242,157.41z"/>
	<path style="fill:#8CC153;" d="M256.047,362.682v21.344c17.648,0,32.008,14.359,32.008,32c0,13.906-8.922,25.75-21.344,30.156
		v22.109c24.344-4.953,42.672-26.453,42.672-52.266C309.382,386.573,285.492,362.682,256.047,362.682z"/>
	<path style="fill:#8CC153;" d="M256.047,469.37v-21.344c-23.562,0-42.664,19.094-42.664,42.656c0,4.781,0.797,9.344,2.234,13.625
		c1.281,4.469,5.383,7.719,10.242,7.719c5.891,0,10.672-4.781,10.672-10.656c0-1.344-0.258-2.625-0.703-3.781l0.031-0.031
		c-0.742-2.156-1.148-4.469-1.148-6.875C234.711,478.932,244.281,469.37,256.047,469.37z"/>
</g>
<path style="fill:#E6E9ED;" d="M368.679,32.027c-27.438-3.844-81.938,42.664-81.938,42.664h-20.477H245.78h-20.477
	c0,0-54.492-46.508-81.93-42.664C67.234,42.691,112.148,99.362,0,96.026c64.68,90.805,110.336,81.367,204.82,42.664l40.961,14.227
	v7.109l10.242-3.555l10.242,3.555v-7.109l40.961-14.227c94.485,38.703,140.141,48.141,204.828-42.664
	C399.898,99.362,444.804,42.691,368.679,32.027z"/>
<rect x="245.377" y="32.027" style="fill:#FFCE54;" width="21.328" height="480"/>
<path style="fill:#F6BB42;" d="M288.054,32.027c0,17.672-14.344,32-32.008,32c-17.672,0-32-14.328-32-32s14.328-32,32-32
	C273.711,0.027,288.054,14.355,288.054,32.027z"/>
<path style="fill:#FFCE54;" d="M256.047,21.363c0,5.891-4.773,10.664-10.664,10.664s-10.672-4.773-10.672-10.664
	s4.781-10.672,10.672-10.672S256.047,15.472,256.047,21.363z"/>
<path style="fill:#A0D468;" d="M256.047,448.026L256.047,448.026c-17.648,0-32-14.359-32-32c0-13.906,8.922-25.75,21.336-30.156
	v-22.109c-24.344,4.953-42.672,26.453-42.672,52.266c0,29.453,23.883,53.344,53.336,53.344l0,0c11.766,0,21.336,9.562,21.336,21.312
	c0,2.328-0.391,4.562-1.078,6.656l0.047,0.016c-0.5,1.234-0.781,2.578-0.781,4.016c0,5.875,4.766,10.656,10.672,10.656
	c4.891,0,9-3.297,10.25-7.797c1.438-4.25,2.219-8.797,2.219-13.547C298.711,467.12,279.617,448.026,256.047,448.026z"/>
<g>
	<path style="fill:#8CC153;" d="M256.047,362.682v21.344c16.133,0,29.508,12,31.68,27.531h21.453
		C306.898,384.182,283.992,362.682,256.047,362.682z"/>
	<path style="fill:#8CC153;" d="M213.382,320.026c0-19.844,13.617-36.562,32-41.312v-21.797
		c-30.273,5.078-53.336,31.391-53.336,63.109c0,35.344,28.656,64,64,64l0,0v-21.344l0,0
		C232.523,362.682,213.382,343.557,213.382,320.026z"/>
</g>
<g>
	<path style="fill:#A0D468;" d="M256.047,256.026L256.047,256.026c-9.797,0-20.227-5.992-28.625-16.438
		c-8.789-10.945-14.039-24.984-14.039-37.562c0-9.961,3.359-17.344,10.266-22.562c1.508-1.141,3.18-2.172,4.992-3.094l-0.008-0.023
		c3.594-1.719,6.078-5.375,6.078-9.617c0-5.891-4.773-10.672-10.664-10.672c-1.812,0-3.508,0.453-5.008,1.25l0,0
		c-0.039,0.023-0.078,0.047-0.117,0.062c-16.266,8.32-26.875,23.156-26.875,44.656c0,35.344,28.656,75.344,64,75.344l0,0
		L256.047,256.026L256.047,256.026z"/>
	<path style="fill:#A0D468;" d="M256.047,256.026v21.344c21.664,0,39.602,16.234,42.305,37.188h21.453
		C317.023,281.776,289.554,256.026,256.047,256.026z"/>
</g>
</svg>